<svg width="134" height="71" viewBox="0 0 134 71" fill="none" xmlns="http://www.w3.org/2000/svg">
<path d="M16.902 4.012V70H0.828V4.012H16.902ZM49.8887 70.752C45.314 70.752 41.2407 69.9687 37.6687 68.402C34.0967 66.8353 31.2767 64.7047 29.2087 62.01C27.1407 59.2527 25.9813 56.182 25.7307 52.798H41.6167C41.8047 54.6153 42.6507 56.088 44.1547 57.216C45.6587 58.344 47.5073 58.908 49.7007 58.908C51.706 58.908 53.2413 58.532 54.3067 57.78C55.4347 56.9653 55.9987 55.9313 55.9987 54.678C55.9987 53.174 55.2153 52.0773 53.6487 51.388C52.082 50.636 49.544 49.8213 46.0347 48.944C42.2747 48.0667 39.1413 47.158 36.6347 46.218C34.128 45.2153 31.966 43.68 30.1487 41.612C28.3313 39.4813 27.4227 36.63 27.4227 33.058C27.4227 30.05 28.2373 27.324 29.8667 24.88C31.5587 22.3733 34.0027 20.3993 37.1987 18.958C40.4573 17.5167 44.3113 16.796 48.7607 16.796C55.3407 16.796 60.5107 18.4253 64.2707 21.684C68.0933 24.9427 70.2867 29.2667 70.8507 34.656H55.9987C55.748 32.8387 54.9333 31.3973 53.5547 30.332C52.2387 29.2667 50.484 28.734 48.2907 28.734C46.4107 28.734 44.9693 29.11 43.9667 29.862C42.964 30.5513 42.4627 31.5227 42.4627 32.776C42.4627 34.28 43.246 35.408 44.8127 36.16C46.442 36.912 48.9487 37.664 52.3327 38.416C56.218 39.4187 59.3827 40.4213 61.8267 41.424C64.2707 42.364 66.4013 43.9307 68.2187 46.124C70.0987 48.2547 71.07 51.1373 71.1327 54.772C71.1327 57.8427 70.2553 60.6 68.5007 63.044C66.8087 65.4253 64.3333 67.3053 61.0747 68.684C57.8787 70.0627 54.15 70.752 49.8887 70.752ZM113.209 16.984C119.225 16.984 124.05 18.9893 127.685 23C131.319 26.948 133.137 32.4 133.137 39.356V70H117.157V41.518C117.157 38.0087 116.248 35.2827 114.431 33.34C112.613 31.3973 110.169 30.426 107.099 30.426C104.028 30.426 101.584 31.3973 99.7667 33.34C97.9493 35.2827 97.0407 38.0087 97.0407 41.518V70H80.9667V0.439999H97.0407V24.598C98.67 22.2793 100.895 20.4307 103.715 19.052C106.535 17.6733 109.699 16.984 113.209 16.984Z" fill="url(#paint0_linear_35_4)" fill-opacity="0.2"/>
<defs>
<linearGradient id="paint0_linear_35_4" x1="67" y1="-33" x2="67" y2="108" gradientUnits="userSpaceOnUse">
<stop stop-color="#D9E4EC"/>
<stop offset="1" stop-color="#385E72"/>
</linearGradient>
</defs>
</svg>
