<svg width="601" height="71" viewBox="0 0 601 71" fill="none" xmlns="http://www.w3.org/2000/svg">
<path d="M16.902 4.012V70H0.828V4.012H16.902ZM49.8887 70.752C45.314 70.752 41.2407 69.9687 37.6687 68.402C34.0967 66.8353 31.2767 64.7047 29.2087 62.01C27.1407 59.2527 25.9813 56.182 25.7307 52.798H41.6167C41.8047 54.6153 42.6507 56.088 44.1547 57.216C45.6587 58.344 47.5073 58.908 49.7007 58.908C51.706 58.908 53.2413 58.532 54.3067 57.78C55.4347 56.9653 55.9987 55.9313 55.9987 54.678C55.9987 53.174 55.2153 52.0773 53.6487 51.388C52.082 50.636 49.544 49.8213 46.0347 48.944C42.2747 48.0667 39.1413 47.158 36.6347 46.218C34.128 45.2153 31.966 43.68 30.1487 41.612C28.3313 39.4813 27.4227 36.63 27.4227 33.058C27.4227 30.05 28.2373 27.324 29.8667 24.88C31.5587 22.3733 34.0027 20.3993 37.1987 18.958C40.4573 17.5167 44.3113 16.796 48.7607 16.796C55.3407 16.796 60.5107 18.4253 64.2707 21.684C68.0933 24.9427 70.2867 29.2667 70.8507 34.656H55.9987C55.748 32.8387 54.9333 31.3973 53.5547 30.332C52.2387 29.2667 50.484 28.734 48.2907 28.734C46.4107 28.734 44.9693 29.11 43.9667 29.862C42.964 30.5513 42.4627 31.5227 42.4627 32.776C42.4627 34.28 43.246 35.408 44.8127 36.16C46.442 36.912 48.9487 37.664 52.3327 38.416C56.218 39.4187 59.3827 40.4213 61.8267 41.424C64.2707 42.364 66.4013 43.9307 68.2187 46.124C70.0987 48.2547 71.07 51.1373 71.1327 54.772C71.1327 57.8427 70.2553 60.6 68.5007 63.044C66.8087 65.4253 64.3333 67.3053 61.0747 68.684C57.8787 70.0627 54.15 70.752 49.8887 70.752ZM113.209 16.984C119.225 16.984 124.05 18.9893 127.685 23C131.319 26.948 133.137 32.4 133.137 39.356V70H117.157V41.518C117.157 38.0087 116.248 35.2827 114.431 33.34C112.613 31.3973 110.169 30.426 107.099 30.426C104.028 30.426 101.584 31.3973 99.7667 33.34C97.9493 35.2827 97.0407 38.0087 97.0407 41.518V70H80.9667V0.439999H97.0407V24.598C98.67 22.2793 100.895 20.4307 103.715 19.052C106.535 17.6733 109.699 16.984 113.209 16.984ZM211.696 4.012V16.89H194.212V70H178.138V16.89H160.654V4.012H211.696ZM252.006 16.984C258.022 16.984 262.847 18.9893 266.482 23C270.116 26.948 271.934 32.4 271.934 39.356V70H255.954V41.518C255.954 38.0087 255.045 35.2827 253.228 33.34C251.41 31.3973 248.966 30.426 245.896 30.426C242.825 30.426 240.381 31.3973 238.564 33.34C236.746 35.2827 235.838 38.0087 235.838 41.518V70H219.764V0.439999H235.838V24.598C237.467 22.2793 239.692 20.4307 242.512 19.052C245.332 17.6733 248.496 16.984 252.006 16.984ZM334.897 17.548V70H318.823V62.856C317.194 65.1747 314.969 67.0547 312.149 68.496C309.392 69.8747 306.321 70.564 302.937 70.564C298.927 70.564 295.386 69.6867 292.315 67.932C289.245 66.1147 286.863 63.514 285.171 60.13C283.479 56.746 282.633 52.7667 282.633 48.192V17.548H298.613V46.03C298.613 49.5393 299.522 52.2653 301.339 54.208C303.157 56.1507 305.601 57.122 308.671 57.122C311.805 57.122 314.28 56.1507 316.097 54.208C317.915 52.2653 318.823 49.5393 318.823 46.03V17.548H334.897ZM413.371 16.984C419.889 16.984 425.059 18.958 428.881 22.906C432.767 26.854 434.709 32.3373 434.709 39.356V70H418.729V41.518C418.729 38.134 417.821 35.5333 416.003 33.716C414.249 31.836 411.805 30.896 408.671 30.896C405.538 30.896 403.063 31.836 401.245 33.716C399.491 35.5333 398.613 38.134 398.613 41.518V70H382.633V41.518C382.633 38.134 381.725 35.5333 379.907 33.716C378.153 31.836 375.709 30.896 372.575 30.896C369.442 30.896 366.967 31.836 365.149 33.716C363.395 35.5333 362.517 38.134 362.517 41.518V70H346.443V17.548H362.517V24.128C364.147 21.9347 366.277 20.2113 368.909 18.958C371.541 17.642 374.518 16.984 377.839 16.984C381.787 16.984 385.297 17.83 388.367 19.522C391.501 21.214 393.945 23.6267 395.699 26.76C397.517 23.8773 399.992 21.5273 403.125 19.71C406.259 17.8927 409.674 16.984 413.371 16.984ZM462.025 24.974C463.529 22.53 465.691 20.556 468.511 19.052C471.331 17.548 474.558 16.796 478.193 16.796C482.517 16.796 486.434 17.8927 489.943 20.086C493.452 22.2793 496.21 25.4127 498.215 29.486C500.283 33.5593 501.317 38.2907 501.317 43.68C501.317 49.0693 500.283 53.832 498.215 57.968C496.21 62.0413 493.452 65.206 489.943 67.462C486.434 69.6553 482.517 70.752 478.193 70.752C474.496 70.752 471.268 70.0313 468.511 68.59C465.754 67.086 463.592 65.112 462.025 62.668V70H445.951V0.439999H462.025V24.974ZM484.961 43.68C484.961 39.6693 483.833 36.536 481.577 34.28C479.384 31.9613 476.658 30.802 473.399 30.802C470.203 30.802 467.477 31.9613 465.221 34.28C463.028 36.5987 461.931 39.7633 461.931 43.774C461.931 47.7847 463.028 50.9493 465.221 53.268C467.477 55.5867 470.203 56.746 473.399 56.746C476.595 56.746 479.321 55.5867 481.577 53.268C483.833 50.8867 484.961 47.6907 484.961 43.68ZM559.194 42.928C559.194 44.432 559.1 45.9987 558.912 47.628H522.534C522.785 50.8867 523.819 53.3933 525.636 55.148C527.516 56.84 529.803 57.686 532.498 57.686C536.509 57.686 539.297 55.994 540.864 52.61H557.972C557.095 56.0567 555.497 59.1587 553.178 61.916C550.922 64.6733 548.071 66.8353 544.624 68.402C541.177 69.9687 537.323 70.752 533.062 70.752C527.923 70.752 523.349 69.6553 519.338 67.462C515.327 65.2687 512.194 62.1353 509.938 58.062C507.682 53.9887 506.554 49.226 506.554 43.774C506.554 38.322 507.651 33.5593 509.844 29.486C512.1 25.4127 515.233 22.2793 519.244 20.086C523.255 17.8927 527.861 16.796 533.062 16.796C538.138 16.796 542.65 17.8613 546.598 19.992C550.546 22.1227 553.617 25.162 555.81 29.11C558.066 33.058 559.194 37.664 559.194 42.928ZM542.744 38.698C542.744 35.9407 541.804 33.7473 539.924 32.118C538.044 30.4887 535.694 29.674 532.874 29.674C530.179 29.674 527.892 30.4573 526.012 32.024C524.195 33.5907 523.067 35.8153 522.628 38.698H542.744ZM583.748 26.29C585.628 23.4073 587.978 21.1513 590.798 19.522C593.618 17.83 596.751 16.984 600.198 16.984V33.998H595.78C591.769 33.998 588.761 34.8753 586.756 36.63C584.75 38.322 583.748 41.33 583.748 45.654V70H567.674V17.548H583.748V26.29Z" fill="url(#paint0_linear_33_3)"/>
<defs>
<linearGradient id="paint0_linear_33_3" x1="299" y1="-33" x2="299" y2="108" gradientUnits="userSpaceOnUse">
<stop stop-color="#D9E4EC"/>
<stop offset="1" stop-color="#385E72"/>
</linearGradient>
</defs>
</svg>
