<svg xmlns="http://www.w3.org/2000/svg" version="1.1" xmlns:xlink="http://www.w3.org/1999/xlink" xmlns:svgjs="http://svgjs.dev/svgjs" viewBox="0 0 1422 800"><defs><filter id="llleaves-blur-2" x="-100%" y="-100%" width="400%" height="400%"><feGaussianBlur in="SourceGraphic" stdDeviation="2"></feGaussianBlur></filter><filter id="llleaves-blur-3" x="-100%" y="-100%" width="400%" height="400%"><feGaussianBlur in="SourceGraphic" stdDeviation="4"></feGaussianBlur></filter><filter id="llleaves-blur-4" x="-100%" y="-100%" width="400%" height="400%"><feGaussianBlur in="SourceGraphic" stdDeviation="12"></feGaussianBlur></filter></defs><g fill="hsl(352, 100%, 76%)"><path d="M817 642H867C895 642 917 664 917 692H867C839 692 817 670 817 642Z " transform="matrix(-0.17218510700189188,-0.4485575393537601,0.4485575393537601,-0.17218510700189188,717.0966090216823,1170.746852989972)" opacity="0.74"></path><path d="M1069 326H1119C1147 326 1169 348 1169 376H1119C1091 376 1069 354 1069 326Z " transform="matrix(-0.30972417015359016,-0.3207287671076707,0.3207287671076707,-0.30972417015359016,1353.0055491470748,818.6086741173937)" opacity="0.68"></path><path d="M500 431H550C578 431 600 453 600 481H550C522 481 500 459 500 431Z " transform="matrix(-0.3796329787408451,-0.1457274470519751,0.1457274470519751,-0.3796329787408451,692.3464224517642,709.2627341844116)" opacity="0.62"></path><path d="M1124 226H1174C1202 226 1224 248 1224 276H1174C1146 276 1124 254 1124 226Z " transform="matrix(-0.3747919295732803,-0.1747683469747094,0.1747683469747094,-0.3747919295732803,1570.138870228379,550.2508136712022)" opacity="0.63"></path><path d="M163 116H213C241 116 263 138 263 166H213C185 166 163 144 163 116Z " transform="matrix(0.05448952307419431,-0.5184331814646581,0.5184331814646581,0.05448952307419431,128.2946529986798,243.74324489851082)" opacity="0.80"></path><path d="M679 489H729C757 489 779 511 779 539H729C701 539 679 517 679 489Z " transform="matrix(-0.3506719983887788,-0.24554317671088596,0.24554317671088596,-0.3506719983887788,858.4306939960244,873.2463829940682)" opacity="0.66"></path><path d="M616 393H666C694 393 716 415 716 443H666C638 443 616 421 616 393Z " transform="matrix(-0.3769869512379754,-0.16002146684015875,0.16002146684015875,-0.3769869512379754,850.1843363853052,682.1548425330195)" opacity="0.63"></path><path d="M660 289H710C738 289 760 311 760 339H710C682 339 660 317 660 289Z " transform="matrix(-0.368895437999877,-0.19614518368142692,0.19614518368142692,-0.368895437999877,910.3261733039446,569.0962479457745)" opacity="0.64"></path><path d="M444 614H494C522 614 544 636 544 664H494C466 664 444 642 444 614Z " transform="matrix(-0.3597630851890111,-0.22480492588295747,0.22480492588295747,-0.3597630851890111,528.0726164441617,979.9422448219591)" opacity="0.65"></path><path d="M198 229H248C276 229 298 251 298 279H248C220 279 198 257 198 229Z " transform="matrix(-0.044036110392281155,-0.5033350449939455,0.5033350449939455,-0.044036110392281155,131.07385394882357,390.01226319813793)" opacity="0.78"></path><path d="M614 725H664C692 725 714 747 714 775H664C636 775 614 753 614 725Z " transform="matrix(-0.3769869512379754,-0.16002146684015875,0.16002146684015875,-0.3769869512379754,794.3032354918965,1138.9944674103467)" opacity="0.63"></path><path d="M471 723H521C549 723 571 745 571 773H521C493 773 471 751 471 723Z " transform="matrix(-0.3721567905034204,-0.18151299478459604,0.18151299478459604,-0.3721567905034204,579.1219677534042,1120.941549579333)" opacity="0.64"></path><path d="M852 329H902C930 329 952 351 952 379H902C874 379 852 357 852 329Z " transform="matrix(-0.15010772284763152,-0.4619840674110209,0.4619840674110209,-0.15010772284763152,873.8548061450622,823.8477626928025)" opacity="0.75"></path><path d="M1092 117H1142C1170 117 1192 139 1192 167H1142C1114 167 1092 145 1092 117Z " transform="matrix(-0.31335909663884115,-0.31335909663884104,0.31335909663884104,-0.31335909663884115,1455.3590966388413,544.353080084272)" opacity="0.68"></path><path d="M25 595H75C103 595 125 617 125 645H75C47 645 25 623 25 595Z " transform="matrix(-0.36240898933510063,-0.2177572896730411,0.2177572896730411,-0.36240898933510063,-32.82884539715292,861.0253701132406)" opacity="0.65"></path></g><g fill="none" stroke-width="3" stroke="hsl(352, 100%, 76%)"><path d="M568 628H618C646 628 668 650 668 678H618C590 678 568 656 568 628Z " transform="matrix(-0.3839507321423847,-0.11738551898444269,0.11738551898444269,-0.3839507321423847,778.6288085671526,976.2640788213628)" opacity="0.62"></path><path d="M883 212H933C961 212 983 234 983 262H933C905 262 883 240 883 212Z " transform="matrix(-0.1346165477300703,-0.4694636929338468,0.4694636929338468,-0.1346165477300703,947.3343438068339,706.9137473193057)" opacity="0.75"></path><path d="M144 447H194C222 447 244 469 244 497H194C166 497 144 475 144 447Z " transform="matrix(-0.10261200489080673,-0.48275152780323866,0.48275152780323866,-0.10261200489080673,-13.951992174312124,614.086662702289)" opacity="0.76"></path><path d="M671 35H721C749 35 771 57 771 85H721C693 85 671 63 671 35Z " transform="matrix(0.31564633275050663,-0.46796493279008655,0.46796493279008655,0.31564633275050663,465.3410981194795,378.46393657662196)" opacity="0.87"></path><path d="M960 294H1010C1038 294 1060 316 1060 344H1010C982 344 960 322 960 294Z " transform="matrix(-0.17952839091708175,-0.4443483601738502,0.4443483601738502,-0.17952839091708175,1049.5765479307945,825.0614004781378)" opacity="0.74"></path><path d="M968 115H1018C1046 115 1068 137 1068 165H1018C990 165 968 143 968 115Z " transform="matrix(-0.017769473992198442,-0.5088511579447661,0.5088511579447661,-0.017769473992198442,964.8501624117907,660.4982051466797)" opacity="0.78"></path><path d="M342 27H392C420 27 442 49 442 77H392C364 77 342 55 342 27Z " transform="matrix(0.27947045026960493,-0.4840570190811069,0.4840570190811069,0.27947045026960493,257.27661850209734,227.21788806577442)" opacity="0.86"></path><path d="M859 106H909C937 106 959 128 959 156H909C881 156 859 134 859 106Z " transform="matrix(0.14807248794713998,-0.5163901332023144,0.5163901332023144,0.14807248794713998,706.7550010065465,581.0011351598284)" opacity="0.83"></path><path d="M1210 634H1260C1288 634 1310 656 1310 684H1260C1232 684 1210 662 1210 634Z " transform="matrix(-0.35159900962208246,0.0683439241828561,-0.0683439241828561,-0.35159900962208246,1748.0533981603257,804.5904028705536)" filter="url(#llleaves-blur-2)" opacity="0.55"></path><path d="M15 475H65C93 475 115 497 115 525H65C37 525 15 503 15 475Z " transform="matrix(-0.36240898933510063,-0.2177572896730411,0.2177572896730411,-0.36240898933510063,-20.32206052973902,695.358718496298)" opacity="0.65"></path><path d="M1321 141H1371C1399 141 1421 163 1421 191H1371C1343 191 1321 169 1321 141Z " transform="matrix(-0.15667005646864787,0.24125073083492307,-0.24125073083492307,-0.15667005646864787,1625.8422687371135,-138.74752260088394)" filter="url(#llleaves-blur-3)" opacity="0.44"></path><path d="M455 39H505C533 39 555 61 555 89H505C477 89 455 67 455 39Z " transform="matrix(0.13877007575277595,-0.517896973279541,0.517896973279541,0.13877007575277595,401.7757054549576,316.6566866579906)" opacity="0.82"></path><path d="M561 114H611C639 114 661 136 661 164H611C583 164 561 142 561 114Z " transform="matrix(-0.18652580148796244,-0.4394272507225879,0.4394272507225879,-0.18652580148796244,663.8868768587054,433.41713659832794)" opacity="0.73"></path><path d="M1049 444H1099C1127 444 1149 466 1149 494H1099C1071 494 1049 472 1049 444Z " transform="matrix(-0.30972417015359016,-0.3207287671076707,0.3207287671076707,-0.30972417015359016,1288.965071225298,966.7415508533638)" opacity="0.68"></path></g></svg>