<?xml version="1.0" standalone="no"?><svg xmlns:xlink="http://www.w3.org/1999/xlink" xmlns="http://www.w3.org/2000/svg" viewBox="0 0 1000 562.5039565189868" preserveAspectRatio="xMaxYMax slice"><g transform="scale(0.904347196975863)"><rect x="0" y="0" width="1105.7777777777778" height="622" fill="#fcfcfc"/><path d="M 138.22 0 A 69.11 69.11 0 0 1  207.32999999999998 69.11 L 138.22 0 A 69.11 69.11 0 0 0 207.32999999999998 69.11" fill="#fbb684"/><rect x="414.6666666666667" y="0" width="69.11111111111111" height="69.11111111111111" fill="#fcfcfc"/><path d="M 414.67 69.12 A 34.56 34.56 0 0 1  449.23 34.56 L 414.67 69.12 A 34.56 34.56 0 0 0 449.23 34.56" fill="#fba669"/><rect x="760.2222222222223" y="0" width="69.11111111111111" height="69.11111111111111" fill="#fcfcfc"/><path d="M 760.22 0 A 34.56 34.56 0 0 1  794.78 34.56 L 760.22 0 A 34.56 34.56 0 0 0 794.78 34.56" fill="#c6edf4"/><path d="M 967.56 69.11 A 69.11 69.11 0 0 1  1036.6699999999998 0 L 967.56 69.11 A 69.11 69.11 0 0 0 1036.6699999999998 0" fill="#b7e1df"/><rect x="0" y="69.11111111111111" width="69.11111111111111" height="69.11111111111111" fill="#fcfcfc"/><path d="M 34.56 103.67 A 34.56 34.56 0 0 1  69.12 69.11 L 34.56 103.67 A 34.56 34.56 0 0 0 69.12 69.11" fill="#f7c094"/><rect x="207.33333333333334" y="69.11111111111111" width="69.11111111111111" height="69.11111111111111" fill="#fcfcfc"/><path d="M 207.33 138.23000000000002 A 34.56 34.56 0 0 1  241.89000000000001 103.67 L 207.33 138.23000000000002 A 34.56 34.56 0 0 0 241.89000000000001 103.67" fill="#e3e7d1"/><path d="M 276.44 138.22 A 69.11 69.11 0 0 1  345.55 69.11 L 276.44 138.22 A 69.11 69.11 0 0 0 345.55 69.11" fill="#c6e7e5"/><path d="M 414.67 138.22 A 69.11 69.11 0 0 1  483.78000000000003 69.11 L 414.67 138.22 A 69.11 69.11 0 0 0 483.78000000000003 69.11" fill="#fbeade"/><path d="M 483.78 138.22 A 69.11 69.11 0 0 1  552.89 69.11 L 483.78 138.22 A 69.11 69.11 0 0 0 552.89 69.11" fill="#f8fafa"/><path d="M 622 138.22 A 69.11 69.11 0 0 1  691.11 69.11 L 622 138.22 A 69.11 69.11 0 0 0 691.11 69.11" fill="#c5e7e5"/><path d="M 691.11 138.22 A 69.11 69.11 0 0 1  760.22 69.11 L 691.11 138.22 A 69.11 69.11 0 0 0 760.22 69.11" fill="#e0f1f0"/><path d="M 829.33 69.11 A 69.11 69.11 0 0 1  898.44 138.22 L 829.33 69.11 A 69.11 69.11 0 0 0 898.44 138.22" fill="#f5f6f0"/><path d="M 1036.67 138.22 A 69.11 69.11 0 0 1  1105.78 69.11 L 1036.67 138.22 A 69.11 69.11 0 0 0 1105.78 69.11" fill="#c3ecf4"/><rect x="0" y="138.22222222222223" width="69.11111111111111" height="69.11111111111111" fill="#fcfcfc"/><path d="M 0 172.78 A 34.56 34.56 0 0 1  34.56 207.34 L 0 172.78 A 34.56 34.56 0 0 0 34.56 207.34" fill="#f7b987"/><path d="M 34.56 207.34 A 34.56 34.56 0 0 1  69.12 172.78 L 34.56 207.34 A 34.56 34.56 0 0 0 69.12 172.78" fill="#f1f2e9"/><path d="M 69.11 207.32999999999998 A 69.11 69.11 0 0 1  138.22 138.22 L 69.11 207.32999999999998 A 69.11 69.11 0 0 0 138.22 138.22" fill="#fa6b03"/><path d="M 276.44 138.22 A 69.11 69.11 0 0 1  345.55 207.32999999999998 L 276.44 138.22 A 69.11 69.11 0 0 0 345.55 207.32999999999998" fill="#f5f6f1"/><rect x="345.55555555555554" y="138.22222222222223" width="69.11111111111111" height="69.11111111111111" fill="#fcfcfc"/><path d="M 380.11 172.78 A 34.56 34.56 0 0 1  414.67 138.22 L 380.11 172.78 A 34.56 34.56 0 0 0 414.67 138.22" fill="#cdeff5"/><path d="M 483.78 138.22 A 69.11 69.11 0 0 1  552.89 207.32999999999998 L 483.78 138.22 A 69.11 69.11 0 0 0 552.89 207.32999999999998" fill="#f8c399"/><rect x="829.3333333333334" y="138.22222222222223" width="69.11111111111111" height="69.11111111111111" fill="#fcfcfc"/><path d="M 863.89 138.22 A 34.56 34.56 0 0 1  898.45 172.78 L 863.89 138.22 A 34.56 34.56 0 0 0 898.45 172.78" fill="#fbcca9"/><rect x="898.4444444444445" y="138.22222222222223" width="69.11111111111111" height="69.11111111111111" fill="#fcfcfc"/><path d="M 898.44 172.78 A 34.56 34.56 0 0 1  933 138.22 L 898.44 172.78 A 34.56 34.56 0 0 0 933 138.22" fill="#edefe3"/><path d="M 898.44 172.78 A 34.56 34.56 0 0 1  933 207.34 L 898.44 172.78 A 34.56 34.56 0 0 0 933 207.34" fill="#ceeff5"/><path d="M 69.11 276.44 A 69.11 69.11 0 0 1  138.22 207.33 L 69.11 276.44 A 69.11 69.11 0 0 0 138.22 207.33" fill="#fba466"/><rect x="345.55555555555554" y="207.33333333333334" width="69.11111111111111" height="69.11111111111111" fill="#fcfcfc"/><path d="M 345.56 207.33 A 34.56 34.56 0 0 1  380.12 241.89000000000001 L 345.56 207.33 A 34.56 34.56 0 0 0 380.12 241.89000000000001" fill="#fbf2ea"/><path d="M 345.56 241.89 A 34.56 34.56 0 0 1  380.12 276.45 L 345.56 241.89 A 34.56 34.56 0 0 0 380.12 276.45" fill="#fbf5f0"/><rect x="483.7777777777778" y="207.33333333333334" width="69.11111111111111" height="69.11111111111111" fill="#fcfcfc"/><path d="M 483.78 276.45 A 34.56 34.56 0 0 1  518.3399999999999 241.89 L 483.78 276.45 A 34.56 34.56 0 0 0 518.3399999999999 241.89" fill="#d8f2f7"/><path d="M 967.56 207.33 A 69.11 69.11 0 0 1  1036.6699999999998 276.44 L 967.56 207.33 A 69.11 69.11 0 0 0 1036.6699999999998 276.44" fill="#a8dbd8"/><rect x="1036.6666666666667" y="207.33333333333334" width="69.11111111111111" height="69.11111111111111" fill="#fcfcfc"/><rect x="138.22222222222223" y="276.44444444444446" width="69.11111111111111" height="69.11111111111111" fill="#fcfcfc"/><path d="M 138.22 311 A 34.56 34.56 0 0 1  172.78 345.56 L 138.22 311 A 34.56 34.56 0 0 0 172.78 345.56" fill="#f6af77"/><path d="M 172.78 311 A 34.56 34.56 0 0 1  207.34 345.56 L 172.78 311 A 34.56 34.56 0 0 0 207.34 345.56" fill="#eaecdd"/><rect x="898.4444444444445" y="276.44444444444446" width="69.11111111111111" height="69.11111111111111" fill="#fcfcfc"/><path d="M 898.44 276.44 A 34.56 34.56 0 0 1  933 311 L 898.44 276.44 A 34.56 34.56 0 0 0 933 311" fill="#fbbf93"/><path d="M 933 276.44 A 34.56 34.56 0 0 1  967.56 311 L 933 276.44 A 34.56 34.56 0 0 0 967.56 311" fill="#fbece0"/><path d="M 1036.67 345.55 A 69.11 69.11 0 0 1  1105.78 276.44 L 1036.67 345.55 A 69.11 69.11 0 0 0 1105.78 276.44" fill="#f5a668"/><path d="M 0 345.56 A 69.11 69.11 0 0 1  69.11 414.67 L 0 345.56 A 69.11 69.11 0 0 0 69.11 414.67" fill="#fae8da"/><rect x="207.33333333333334" y="345.55555555555554" width="69.11111111111111" height="69.11111111111111" fill="#fcfcfc"/><path d="M 207.33 414.67 A 34.56 34.56 0 0 1  241.89000000000001 380.11 L 207.33 414.67 A 34.56 34.56 0 0 0 241.89000000000001 380.11" fill="#bae9f3"/><path d="M 345.56 414.67 A 69.11 69.11 0 0 1  414.67 345.56 L 345.56 414.67 A 69.11 69.11 0 0 0 414.67 345.56" fill="#f6f7f2"/><path d="M 622 345.56 A 69.11 69.11 0 0 1  691.11 414.67 L 622 345.56 A 69.11 69.11 0 0 0 691.11 414.67" fill="#f7b784"/><rect x="691.1111111111111" y="345.55555555555554" width="69.11111111111111" height="69.11111111111111" fill="#fcfcfc"/><path d="M 691.11 380.11 A 34.56 34.56 0 0 1  725.6700000000001 414.67 L 691.11 380.11 A 34.56 34.56 0 0 0 725.6700000000001 414.67" fill="#87dbeb"/><rect x="138.22222222222223" y="414.6666666666667" width="69.11111111111111" height="69.11111111111111" fill="#fcfcfc"/><path d="M 138.22 483.78000000000003 A 34.56 34.56 0 0 1  172.78 449.22 L 138.22 483.78000000000003 A 34.56 34.56 0 0 0 172.78 449.22" fill="#fbbd90"/><rect x="207.33333333333334" y="414.6666666666667" width="69.11111111111111" height="69.11111111111111" fill="#fcfcfc"/><path d="M 241.89 414.67 A 34.56 34.56 0 0 1  276.45 449.23 L 241.89 414.67 A 34.56 34.56 0 0 0 276.45 449.23" fill="#fcf5ef"/><path d="M 241.89 483.78000000000003 A 34.56 34.56 0 0 1  276.45 449.22 L 241.89 483.78000000000003 A 34.56 34.56 0 0 0 276.45 449.22" fill="#fbaf78"/><path d="M 760.22 414.67 A 69.11 69.11 0 0 1  829.33 483.78000000000003 L 760.22 414.67 A 69.11 69.11 0 0 0 829.33 483.78000000000003" fill="#75d5e9"/><path d="M 1036.67 483.78000000000003 A 69.11 69.11 0 0 1  1105.78 414.67 L 1036.67 483.78000000000003 A 69.11 69.11 0 0 0 1105.78 414.67" fill="#fbf0e8"/><path d="M 414.67 483.78 A 69.11 69.11 0 0 1  483.78000000000003 552.89 L 414.67 483.78 A 69.11 69.11 0 0 0 483.78000000000003 552.89" fill="#f3f5ed"/><path d="M 552.89 552.89 A 69.11 69.11 0 0 1  622 483.78 L 552.89 552.89 A 69.11 69.11 0 0 0 622 483.78" fill="#b5e8f2"/><rect x="760.2222222222223" y="483.7777777777778" width="69.11111111111111" height="69.11111111111111" fill="#fcfcfc"/><rect x="138.22222222222223" y="552.8888888888889" width="69.11111111111111" height="69.11111111111111" fill="#fcfcfc"/><path d="M 138.22 552.89 A 34.56 34.56 0 0 1  172.78 587.45 L 138.22 552.89 A 34.56 34.56 0 0 0 172.78 587.45" fill="#f3f4ec"/><path d="M 172.78 587.45 A 34.56 34.56 0 0 1  207.34 552.89 L 172.78 587.45 A 34.56 34.56 0 0 0 207.34 552.89" fill="#a8dbd8"/><path d="M 138.22 622 A 34.56 34.56 0 0 1  172.78 587.44 L 138.22 622 A 34.56 34.56 0 0 0 172.78 587.44" fill="#c8edf5"/><path d="M 760.22 622 A 69.11 69.11 0 0 1  829.33 552.89 L 760.22 622 A 69.11 69.11 0 0 0 829.33 552.89" fill="#fbb07a"/><rect x="1036.6666666666667" y="552.8888888888889" width="69.11111111111111" height="69.11111111111111" fill="#fcfcfc"/><path d="M 1036.67 622 A 34.56 34.56 0 0 1  1071.23 587.44 L 1036.67 622 A 34.56 34.56 0 0 0 1071.23 587.44" fill="#d4edeb"/></g></svg>