<?xml version="1.0" standalone="no"?><svg xmlns:xlink="http://www.w3.org/1999/xlink" xmlns="http://www.w3.org/2000/svg" viewBox="0 0 1000 562.5039565189868" preserveAspectRatio="xMaxYMax slice"><g transform="scale(0.904347196975863)"><rect x="0" y="0" width="1105.7777777777778" height="622" fill="#ffffff"/><rect x="0" y="0" width="69.11" height="69.11" fill="#fff9f9"/><rect x="69.11" y="0" width="69.11" height="69.11" fill="#fed5d4"/><rect x="207.33" y="0" width="69.11" height="69.11" fill="#f3f3ec"/><rect x="276.44" y="0" width="69.11" height="69.11" fill="#f5f5ef"/><rect x="345.56" y="0" width="69.11" height="69.11" fill="#ffc2cd"/><rect x="414.67" y="0" width="69.11" height="69.11" fill="#fdc3c1"/><rect x="483.78" y="0" width="69.11" height="69.11" fill="#e4ede9"/><rect x="552.89" y="0" width="69.11" height="69.11" fill="#fdccca"/><rect x="622" y="0" width="69.11" height="69.11" fill="#fee2e1"/><rect x="691.11" y="0" width="69.11" height="69.11" fill="#fdb7b5"/><rect x="760.22" y="0" width="69.11" height="69.11" fill="#fdb3b0"/><rect x="829.33" y="0" width="69.11" height="69.11" fill="#fbdac3"/><rect x="898.44" y="0" width="69.11" height="69.11" fill="#fdefe5"/><rect x="967.56" y="0" width="69.11" height="69.11" fill="#e7e7d9"/><rect x="1036.67" y="0" width="69.11" height="69.11" fill="#fed3d1"/><rect x="69.11" y="69.11" width="69.11" height="69.11" fill="#fe90a4"/><rect x="207.33" y="69.11" width="69.11" height="69.11" fill="#fad7bd"/><rect x="345.56" y="69.11" width="69.11" height="69.11" fill="#fca4a2"/><rect x="483.78" y="69.11" width="69.11" height="69.11" fill="#f6f9f7"/><rect x="829.33" y="69.11" width="69.11" height="69.11" fill="#eeeee4"/><rect x="898.44" y="69.11" width="69.11" height="69.11" fill="#e7efec"/><rect x="967.56" y="69.11" width="69.11" height="69.11" fill="#87b29f"/><rect x="1036.67" y="69.11" width="69.11" height="69.11" fill="#f8faf9"/><rect x="0" y="138.22" width="69.11" height="69.11" fill="#ffadbc"/><rect x="69.11" y="138.22" width="69.11" height="69.11" fill="#ffbeca"/><rect x="207.33" y="138.22" width="69.11" height="69.11" fill="#fce9db"/><rect x="276.44" y="138.22" width="69.11" height="69.11" fill="#fdc9c8"/><rect x="345.56" y="138.22" width="69.11" height="69.11" fill="#e2e2d2"/><rect x="552.89" y="138.22" width="69.11" height="69.11" fill="#b2cdc1"/><rect x="622" y="138.22" width="69.11" height="69.11" fill="#ffa7b7"/><rect x="691.11" y="138.22" width="69.11" height="69.11" fill="#fad2b5"/><rect x="760.22" y="138.22" width="69.11" height="69.11" fill="#d8d8c2"/><rect x="829.33" y="138.22" width="69.11" height="69.11" fill="#d6e4de"/><rect x="967.56" y="138.22" width="69.11" height="69.11" fill="#fbdfcb"/><rect x="0" y="207.33" width="69.11" height="69.11" fill="#fdb1ae"/><rect x="69.11" y="207.33" width="69.11" height="69.11" fill="#cbcbae"/><rect x="276.44" y="207.33" width="69.11" height="69.11" fill="#fff1f3"/><rect x="414.67" y="207.33" width="69.11" height="69.11" fill="#ffeaed"/><rect x="622" y="207.33" width="69.11" height="69.11" fill="#abc9bb"/><rect x="691.11" y="207.33" width="69.11" height="69.11" fill="#fce7d7"/><rect x="760.22" y="207.33" width="69.11" height="69.11" fill="#fffcfc"/><rect x="898.44" y="207.33" width="69.11" height="69.11" fill="#fdbebc"/><rect x="967.56" y="207.33" width="69.11" height="69.11" fill="#fe7e95"/><rect x="1036.67" y="207.33" width="69.11" height="69.11" fill="#fef7f2"/><rect x="0" y="276.44" width="69.11" height="69.11" fill="#e8f0ed"/><rect x="69.11" y="276.44" width="69.11" height="69.11" fill="#fad2b5"/><rect x="138.22" y="276.44" width="69.11" height="69.11" fill="#fe92a6"/><rect x="207.33" y="276.44" width="69.11" height="69.11" fill="#ffabba"/><rect x="483.78" y="276.44" width="69.11" height="69.11" fill="#9dc0b0"/><rect x="552.89" y="276.44" width="69.11" height="69.11" fill="#fbe0cc"/><rect x="760.22" y="276.44" width="69.11" height="69.11" fill="#eaeade"/><rect x="829.33" y="276.44" width="69.11" height="69.11" fill="#fcaaa7"/><rect x="898.44" y="276.44" width="69.11" height="69.11" fill="#fe8ba0"/><rect x="967.56" y="276.44" width="69.11" height="69.11" fill="#fdefe5"/><rect x="0" y="345.56" width="69.11" height="69.11" fill="#ffffff"/><rect x="69.11" y="345.56" width="69.11" height="69.11" fill="#e1ece7"/><rect x="276.44" y="345.56" width="69.11" height="69.11" fill="#e8f0ed"/><rect x="345.56" y="345.56" width="69.11" height="69.11" fill="#8eb6a4"/><rect x="414.67" y="345.56" width="69.11" height="69.11" fill="#ffaab9"/><rect x="483.78" y="345.56" width="69.11" height="69.11" fill="#fce2d0"/><rect x="552.89" y="345.56" width="69.11" height="69.11" fill="#b7d0c5"/><rect x="622" y="345.56" width="69.11" height="69.11" fill="#f2f2ea"/><rect x="691.11" y="345.56" width="69.11" height="69.11" fill="#ffc1cc"/><rect x="760.22" y="345.56" width="69.11" height="69.11" fill="#ffe3e8"/><rect x="829.33" y="345.56" width="69.11" height="69.11" fill="#fff2f2"/><rect x="898.44" y="345.56" width="69.11" height="69.11" fill="#e6e6d8"/><rect x="967.56" y="345.56" width="69.11" height="69.11" fill="#fbe1ce"/><rect x="69.11" y="414.67" width="69.11" height="69.11" fill="#f0f0e7"/><rect x="207.33" y="414.67" width="69.11" height="69.11" fill="#c4d9cf"/><rect x="276.44" y="414.67" width="69.11" height="69.11" fill="#fefaf7"/><rect x="345.56" y="414.67" width="69.11" height="69.11" fill="#ffa6b6"/><rect x="414.67" y="414.67" width="69.11" height="69.11" fill="#fdc0be"/><rect x="483.78" y="414.67" width="69.11" height="69.11" fill="#fce5d4"/><rect x="622" y="414.67" width="69.11" height="69.11" fill="#ddddca"/><rect x="829.33" y="414.67" width="69.11" height="69.11" fill="#ccccb0"/><rect x="967.56" y="414.67" width="69.11" height="69.11" fill="#d9d9c4"/><rect x="1036.67" y="414.67" width="69.11" height="69.11" fill="#d8d8c2"/><rect x="0" y="483.78" width="69.11" height="69.11" fill="#fce5d4"/><rect x="69.11" y="483.78" width="69.11" height="69.11" fill="#f4f8f6"/><rect x="138.22" y="483.78" width="69.11" height="69.11" fill="#f0f0e8"/><rect x="552.89" y="483.78" width="69.11" height="69.11" fill="#f1f1e9"/><rect x="829.33" y="483.78" width="69.11" height="69.11" fill="#cee0d8"/><rect x="898.44" y="483.78" width="69.11" height="69.11" fill="#ffa9b9"/><rect x="967.56" y="483.78" width="69.11" height="69.11" fill="#ffdfe5"/><rect x="1036.67" y="483.78" width="69.11" height="69.11" fill="#fdb9b7"/><rect x="0" y="552.89" width="69.11" height="69.11" fill="#fdebdf"/><rect x="69.11" y="552.89" width="69.11" height="69.11" fill="#fdcac8"/><rect x="138.22" y="552.89" width="69.11" height="69.11" fill="#e8e8db"/><rect x="207.33" y="552.89" width="69.11" height="69.11" fill="#fe7b93"/><rect x="276.44" y="552.89" width="69.11" height="69.11" fill="#fdb1af"/><rect x="345.56" y="552.89" width="69.11" height="69.11" fill="#ffdde3"/><rect x="483.78" y="552.89" width="69.11" height="69.11" fill="#deeae5"/><rect x="552.89" y="552.89" width="69.11" height="69.11" fill="#b6d0c4"/><rect x="622" y="552.89" width="69.11" height="69.11" fill="#a0c2b2"/><rect x="691.11" y="552.89" width="69.11" height="69.11" fill="#bdd4c9"/><rect x="760.22" y="552.89" width="69.11" height="69.11" fill="#fce3d2"/><rect x="898.44" y="552.89" width="69.11" height="69.11" fill="#fff3f6"/><rect x="1036.67" y="552.89" width="69.11" height="69.11" fill="#dfdfcc"/></g></svg>